<svg xmlns="http://www.w3.org/2000/svg" width="99.371" height="71.769" viewBox="0 0 99.371 71.769"><g transform="translate(-504.046 -23.893)"><path d="M607.269,280.744c-3.9-.035-8.438-.125-13.3-.14s-10.068-.046-15.255-.061c-5.2.015-10.391.038-15.257.061s-9.414.1-13.311.14-7.144.14-9.413.17c-2.271.056-3.576.09-3.576.09s1.306.03,3.576.095c2.27.034,5.512.121,9.413.163s8.446.121,13.311.14,10.057.041,15.257.06c5.187-.018,10.381-.041,15.255-.06s9.4-.1,13.3-.14,7.136-.129,9.41-.163c2.274-.064,3.575-.095,3.575-.095s-1.3-.034-3.575-.09c-2.274-.03-5.52-.125-9.41-.17" transform="translate(-24.976 -193.618)" fill="#fff0d5"/><path d="M607.269,202.061c-3.9-.038-8.438-.121-13.3-.137s-10.068-.037-15.255-.06c-5.2.023-10.391.038-15.257.06s-9.414.1-13.311.144-7.144.129-9.413.163l-3.576.09s1.306.03,3.576.091c2.27.041,5.512.125,9.413.162s8.446.129,13.311.148,10.057.037,15.257.06c5.187-.023,10.381-.045,15.255-.06s9.4-.106,13.3-.144,7.136-.125,9.41-.163c2.274-.065,3.575-.1,3.575-.1l-3.575-.09c-2.274-.034-5.52-.129-9.41-.171" transform="translate(-24.976 -134.262)" fill="#fff0d5"/><path d="M602.1,52.9a6.155,6.155,0,0,0-4.065-1.123,10.364,10.364,0,0,0-4.048.8,20.637,20.637,0,0,0-3.7,2,39.045,39.045,0,0,0-3.193,2.391c.084-.14.159-.287.232-.428.809-1.627,1.656-3.983,1.127-5.823a2.185,2.185,0,1,0-3.22,2.252.321.321,0,0,0,.465-.1.381.381,0,0,0,.144-.363c-.125-.73-.257-1.457-.379-2.183a1.179,1.179,0,0,1,1.359-.59c1.5.62,1.041,3,.714,4.211a11.149,11.149,0,0,1-2.216,4.271A12.838,12.838,0,0,1,579.3,60.95a13.587,13.587,0,0,1-2.513.171,5.878,5.878,0,0,1-6.2-4.96,7.084,7.084,0,0,1,.814-5.01,6.2,6.2,0,0,1,4.1-2.933,5.64,5.64,0,0,1,3.992.757,5.384,5.384,0,0,1,2.5,3.03,5.247,5.247,0,0,1-1.987,6,4.553,4.553,0,0,1-3.644.715,3.189,3.189,0,0,1-2.494-2.705,2.88,2.88,0,0,1,.572-1.805,2.369,2.369,0,0,0,1.521,1.479,1.744,1.744,0,0,0,1.774-.552c1-1.378-.76-2.687-2.1-2.407a3.111,3.111,0,0,0-2.448,3.644,4.075,4.075,0,0,0,3.931,3.186,5.7,5.7,0,0,0,4.311-1.884,5.961,5.961,0,0,0,.265-7.7,7.36,7.36,0,0,0-4.12-2.425,8.453,8.453,0,0,0-6.383,1.117,7.832,7.832,0,0,0-1.1.885,44.015,44.015,0,0,0,3.034-16.743V29.561l-3.054,1.108a14.853,14.853,0,0,1-5.05.95,11.785,11.785,0,0,1-9.407-4.795l-1.9-2.932-1.91,2.932a11.905,11.905,0,0,1-9.4,4.795,14.952,14.952,0,0,1-5.063-.95l-3.049-1.108v3.246a43.925,43.925,0,0,0,3.046,16.743,7.88,7.88,0,0,0-1.106-.885,8.445,8.445,0,0,0-6.375-1.117,7.417,7.417,0,0,0-4.132,2.425,5.947,5.947,0,0,0,.276,7.7,5.677,5.677,0,0,0,4.306,1.884,4.089,4.089,0,0,0,3.934-3.186,3.118,3.118,0,0,0-2.456-3.644c-1.336-.28-3.094,1.029-2.1,2.407a1.748,1.748,0,0,0,1.774.552A2.343,2.343,0,0,0,533,54.211a2.767,2.767,0,0,1,.572,1.805,3.186,3.186,0,0,1-2.49,2.705,4.567,4.567,0,0,1-3.647-.715,5.269,5.269,0,0,1-1.987-6,5.41,5.41,0,0,1,2.5-3.03,5.653,5.653,0,0,1,3.991-.757,6.221,6.221,0,0,1,4.109,2.933,7.145,7.145,0,0,1,.817,5.01,6.556,6.556,0,0,1-2,3.568,6.483,6.483,0,0,1-4.2,1.393,13.633,13.633,0,0,1-2.516-.171,12.77,12.77,0,0,1-6.015-2.731,11.051,11.051,0,0,1-2.214-4.271c-.329-1.212-.791-3.591.708-4.211a1.189,1.189,0,0,1,1.366.59q-.194,1.09-.38,2.183a.383.383,0,0,0,.14.363.32.32,0,0,0,.466.1,2.234,2.234,0,0,0,.307-3.617A2.26,2.26,0,0,0,519,50.719c-.514,1.84.325,4.2,1.131,5.823.072.14.151.288.226.428a37.5,37.5,0,0,0-3.19-2.391,20.458,20.458,0,0,0-3.692-2,10.374,10.374,0,0,0-4.053-.8A6.124,6.124,0,0,0,505.37,52.9a3.7,3.7,0,0,0-1.324,2.959,3.591,3.591,0,0,0,.341,1.638,4.784,4.784,0,0,0,.866,1.162,3.85,3.85,0,0,0,1.135.689,3.066,3.066,0,0,0,1.09.245c.163,0,.106-.041-.125-.163a4.783,4.783,0,0,1-.95-.635,6.64,6.64,0,0,1-1.074-1.12,2.921,2.921,0,0,1-.507-1.718,4.469,4.469,0,0,1,.2-1.207,4.033,4.033,0,0,1,.613-1.222,3.552,3.552,0,0,1,1.113-.954,3.165,3.165,0,0,1,1.638-.409,9.791,9.791,0,0,1,4,.84,23.142,23.142,0,0,1,3.742,2.077c.678.474,1.354.969,2.017,1.48-.159-.08-.33-.152-.488-.224a5.112,5.112,0,0,0-2.123-.48,4.138,4.138,0,0,0-.89.124,5.753,5.753,0,0,0-1.021.4,6.264,6.264,0,0,0-1,.655,4.507,4.507,0,0,0-.787.893c-.046.159-.026.242.045.261.087.038.182,0,.311-.08a3.916,3.916,0,0,1,3.367-1.691,4.342,4.342,0,0,1,2.346.954c.919.639,1.91,1.355,2.989,2.131a35.741,35.741,0,0,0,3.4,2.145,2.394,2.394,0,0,0,.341.162,7.639,7.639,0,0,0,2.213.758c.318.148.628.3.961.439a11.951,11.951,0,0,0,4.782.954,9.583,9.583,0,0,0,3.175-.447,8.041,8.041,0,0,0,2.148-1.06,3.579,3.579,0,0,0,1.548-2.319,1,1,0,0,0-.065-.613c-.125-.28-.393-.314-.666-.314a.547.547,0,0,0-.484.3,2.264,2.264,0,0,0-.257.677c-.062.22-.1.45-.133.655-.015.219-.034.321-.034.367a1.2,1.2,0,0,1-.549.92,7.364,7.364,0,0,1-1.328.727,9.8,9.8,0,0,1-1.612.492,7.768,7.768,0,0,1-1.423.166,10.5,10.5,0,0,1-4.525-1c-.48-.219-.957-.465-1.434-.73a3.872,3.872,0,0,0,1.018.228c.36.071.723.129,1.09.174a16.531,16.531,0,0,0,2.2.121,10.874,10.874,0,0,0,4.139-.81,7.122,7.122,0,0,0,4.332-6.814c-.008-.144-.018-.284-.03-.424a29.839,29.839,0,0,0,13.175,12.171l.852.337.843-.333a29.942,29.942,0,0,0,13.179-12.168,3.858,3.858,0,0,0-.031.417,7.133,7.133,0,0,0,4.318,6.814,11.021,11.021,0,0,0,4.158.81,16.5,16.5,0,0,0,2.191-.121c.366-.045.734-.1,1.094-.174a3.809,3.809,0,0,0,1.013-.228c-.475.265-.953.512-1.425.73a10.568,10.568,0,0,1-4.533,1,7.622,7.622,0,0,1-1.411-.166,9.523,9.523,0,0,1-1.627-.492,7.727,7.727,0,0,1-1.328-.727,1.211,1.211,0,0,1-.541-.92c0-.045-.022-.148-.042-.367-.038-.2-.068-.435-.121-.655a2.534,2.534,0,0,0-.26-.677.559.559,0,0,0-.5-.3c-.265,0-.537.034-.662.314a.914.914,0,0,0-.046.613,3.544,3.544,0,0,0,1.54,2.319,7.954,7.954,0,0,0,2.142,1.06,9.614,9.614,0,0,0,3.178.447,11.96,11.96,0,0,0,4.787-.954c.318-.14.639-.291.961-.439a7.557,7.557,0,0,0,2.206-.758,2.28,2.28,0,0,0,.341-.162,35.479,35.479,0,0,0,3.4-2.145c1.078-.776,2.073-1.491,2.986-2.131a4.338,4.338,0,0,1,2.346-.954,3.875,3.875,0,0,1,3.364,1.691c.143.08.23.118.318.08.075-.019.087-.1.037-.261a4.249,4.249,0,0,0-.775-.893,5.438,5.438,0,0,0-2.017-1.052,4.133,4.133,0,0,0-.889-.124,5.172,5.172,0,0,0-2.131.48c-.158.071-.325.144-.484.224.674-.511,1.339-1.007,2.013-1.48a23.362,23.362,0,0,1,3.75-2.077,9.806,9.806,0,0,1,4-.84,3.159,3.159,0,0,1,1.631.409,3.44,3.44,0,0,1,1.112.954,3.966,3.966,0,0,1,.62,1.222,4.579,4.579,0,0,1,.2,1.207,2.922,2.922,0,0,1-.506,1.718,6.434,6.434,0,0,1-1.075,1.12,4.773,4.773,0,0,1-.95.635c-.227.121-.288.163-.128.163a3.14,3.14,0,0,0,1.1-.245,3.8,3.8,0,0,0,1.124-.689,4.638,4.638,0,0,0,.874-1.162,3.591,3.591,0,0,0,.34-1.638A3.727,3.727,0,0,0,602.1,52.9M554.142,65.336l-.408.167-.417-.167c-.718-.292-17.824-7.45-17.824-32.529V31.248l1.464.53a16.145,16.145,0,0,0,5.468,1.022,13.066,13.066,0,0,0,10.39-5.332l.92-1.407.915,1.419a13.015,13.015,0,0,0,10.39,5.32,16.045,16.045,0,0,0,5.459-1.022l1.468-.53v1.559c0,25.083-17.1,32.236-17.825,32.529" transform="translate(0)" fill="#fff0d5"/><path d="M664.271,45.142a14.007,14.007,0,0,1-11.113-5.717l-.193-.31-.2.31a13.969,13.969,0,0,1-11.109,5.717,17.117,17.117,0,0,1-5.756-1.067l-.317-.117v.333c0,24.507,17.118,31.658,17.292,31.734l.091.034.082-.034c.178-.075,17.291-7.226,17.291-31.734v-.333l-.313.117a17.142,17.142,0,0,1-5.755,1.067M652.965,75.548c-1.321-.587-16.755-7.916-16.9-30.921a17.111,17.111,0,0,0,5.589.988,14.48,14.48,0,0,0,11.31-5.661,14.446,14.446,0,0,0,11.305,5.661,17.238,17.238,0,0,0,5.592-.988c-.144,23-15.59,30.334-16.9,30.921" transform="translate(-99.231 -11.484)" fill="#fff0d5"/><path d="M677.76,80.032V81l1.318.143.623.038c.56.023.837.269.837.73,0,.575-.667,2.55-2.028,5.94L674.454,98l-4.177-10.64-1.98-5.308a1.407,1.407,0,0,1-.079-.45.509.509,0,0,1,.224-.45A2.184,2.184,0,0,1,669.455,81h1.518v-.965c-1.658.069-3.069.106-4.253.106-1.117,0-2.475-.038-4.083-.106V81h.635c.746,0,1.188.091,1.318.276a32.411,32.411,0,0,1,1.376,3.258l5.5,13.727q.72,1.787,1.414,3.844h1.575a58.612,58.612,0,0,1,2.077-5.687l5.176-12.626a11.054,11.054,0,0,1,1.181-2.452,1.438,1.438,0,0,1,1.068-.34h.613v-.965c-1.393.069-2.543.106-3.454.106-.875,0-2-.038-3.354-.106" transform="translate(-119.642 -42.351)" fill="#fff0d5"/><path d="M575.9,216.012h.98v-.605c-1.075.046-1.987.068-2.758.068-.73,0-1.6-.022-2.641-.068v.605h.405c.487,0,.768.056.858.174s.386.8.89,2.035l3.572,8.608c.31.753.609,1.563.915,2.417h1.022a35.417,35.417,0,0,1,1.351-3.568l3.352-7.919a6.85,6.85,0,0,1,.772-1.529.918.918,0,0,1,.685-.22h.408v-.605c-.9.046-1.646.068-2.251.068-.568,0-1.3-.022-2.172-.068v.605l.855.088.417.023c.355.015.53.17.53.462a18.01,18.01,0,0,1-1.317,3.723l-2.629,6.364L576.43,220l-1.294-3.322a1.03,1.03,0,0,1-.045-.287.3.3,0,0,1,.148-.281,1.434,1.434,0,0,1,.658-.095" transform="translate(-50.871 -144.479)" fill="#fff0d5"/><path d="M634.625,228.051c-.121.295-.495.435-1.112.435h-.624v.609c.909-.045,1.922-.071,3.049-.071.961,0,1.854.026,2.672.071v-.609h-.663c-.62,0-.979-.125-1.1-.378a23.821,23.821,0,0,1-.166-4.121v-3.321q0-2.629.052-3.663c.02-.443.084-.719.213-.829a1.537,1.537,0,0,1,.893-.163h.768v-.605c-.731.046-1.543.068-2.444.068-1.082,0-2.168-.023-3.277-.068v.605h.807c.537,0,.855.133.956.394a26.647,26.647,0,0,1,.159,4.245V223.9a21.727,21.727,0,0,1-.186,4.147" transform="translate(-97.199 -144.478)" fill="#fff0d5"/><path d="M664.569,218.18c.026-.6.03-1.2.026-1.81.991-.075,1.948-.109,2.856-.109a8.682,8.682,0,0,1,2.888.416,12.592,12.592,0,0,1,.105,1.763h.673a10.511,10.511,0,0,1,.424-2.971c-.632-.053-1.26-.075-1.876-.068l-1.812.015-3.819.053c-.306,0-.76-.015-1.35-.037l-1.047-.03h-1.079v.605l.764.075a2.666,2.666,0,0,1,.855.16.44.44,0,0,1,.216.245,4.25,4.25,0,0,1,.137.984c.057.553.075,1.257.075,2.127v5.274c0,1.385-.042,2.277-.083,2.675a1.1,1.1,0,0,1-.3.772,2.157,2.157,0,0,1-1.079.163h-.32v.609c1.289-.045,2.326-.072,3.1-.072.806,0,2.081.027,3.807.072l1.563.027c.733,0,1.478-.031,2.251-.1l-.03-.431a26.642,26.642,0,0,1,.283-2.819h-.662c-.175.847-.341,1.551-.5,2.119a5.294,5.294,0,0,1-1.04.253,16.386,16.386,0,0,1-1.876.091c-1.109,0-2.153-.037-3.119-.105-.026-.394-.034-1.011-.034-1.863l-.015-1.353v-2.357c.6-.047,1.184-.076,1.737-.076a8.709,8.709,0,0,1,2.637.212c.242.133.372.507.372,1.131v.553h.673c-.045-.821-.067-1.543-.067-2.153,0-.575.022-1.35.067-2.315h-.673v.625c0,.549-.107.878-.311.985a11.116,11.116,0,0,1-2.69.162c-.5,0-1.082-.031-1.744-.069v-1.948Z" transform="translate(-118.073 -144.474)" fill="#fff0d5"/><path d="M712.773,227.631a1.058,1.058,0,0,1-.249.681,1.381,1.381,0,0,1-.844.174h-.715v.609c1.457-.045,2.384-.071,2.793-.071.583,0,1.241.027,1.963.071v-.609l-.64-.045a1.992,1.992,0,0,1-.953-.22,1.51,1.51,0,0,1-.243-.828c-.052-.6-.087-1.653-.087-3.167v-6.651l7.163,8.543c.81.965,1.582,1.843,2.32,2.626a1.194,1.194,0,0,0,.412.306,11.885,11.885,0,0,0,1.584.3q-.163-2.435-.162-4.185v-4.336q0-3.826.091-4.215c.09-.394.446-.6,1.06-.6h.767v-.605q-1.465.069-2.387.068c-.6,0-1.424-.023-2.49-.068v.605l.753.064c.666.069,1.052.224,1.142.462a27.621,27.621,0,0,1,.145,4.234v6.176c-.541-.56-1.427-1.571-2.656-3.016l-3.406-4.041c-.628-.746-1.229-1.484-1.8-2.222s-1.206-1.486-1.865-2.262c-.575.046-1.094.068-1.574.068-.443,0-1.086-.023-1.926-.068v.605h.612a1.389,1.389,0,0,1,.728.163,1.141,1.141,0,0,1,.393.375,1.569,1.569,0,0,1,.151.76c.023.881.034,1.763.034,2.667v4.776c0,1.218-.038,2.172-.11,2.879" transform="translate(-156.1 -144.478)" fill="#fff0d5"/><path d="M790.4,228.1l-.984.057v.609c1.214-.045,2.187-.071,2.91-.071.79,0,1.612.026,2.474.071v-.609a3.212,3.212,0,0,1-.988-.14.971.971,0,0,1-.386-.336,10.783,10.783,0,0,1-.677-1.389l-5.043-11.32h-.675c-.264.715-.763,1.873-1.493,3.458l-2.736,5.994q-.739,1.605-1.446,2.992a1.5,1.5,0,0,1-.427.594,2.262,2.262,0,0,1-.913.136l-.3.012v.609c.722-.045,1.555-.071,2.516-.071.806,0,1.514.026,2.152.071v-.609l-.949-.105a1.512,1.512,0,0,1-.635-.152.37.37,0,0,1-.125-.318,7.462,7.462,0,0,1,.666-1.888l.673-1.544h5.767l1.09,2.675a3.663,3.663,0,0,1,.3.9.318.318,0,0,1-.151.273,1.764,1.764,0,0,1-.624.106m-6.009-4.745,2.517-5.77,2.509,5.77Z" transform="translate(-207.971 -144.153)" fill="#fff0d5"/><path d="M552.358,303.009a3.219,3.219,0,0,1-.754.091,1.787,1.787,0,0,1-1.562-.923,1.888,1.888,0,0,1-.231-.968,1.569,1.569,0,0,1,1.672-1.7,1.887,1.887,0,0,1,.579.084,1.617,1.617,0,0,1,.519.25l.022.5h.193a2.5,2.5,0,0,1,.144-.855c-.114-.023-.25-.053-.431-.091a3.843,3.843,0,0,0-.927-.132,2.856,2.856,0,0,0-1.278.261,1.962,1.962,0,0,0-.813.723,2.241,2.241,0,0,0,0,2.134,1.927,1.927,0,0,0,.818.738,2.589,2.589,0,0,0,1.214.273,2.931,2.931,0,0,0,.678-.084,3.5,3.5,0,0,0,.662-.245c.042-.095.073-.174.11-.265l-.053-.057a1.6,1.6,0,0,1-.556.269" transform="translate(-34.078 -207.74)" fill="#fff0d5"/><path d="M569.273,303.084c-.015-.049-.091-.178-.181-.409l-1.427-3.322h-.2a10.838,10.838,0,0,1-.416,1.019l-.772,1.759c-.14.314-.277.6-.4.874a.629.629,0,0,1-.129.177.66.66,0,0,1-.254.038h-.079v.182c.193-.012.435-.02.7-.02.227,0,.42.008.61.02v-.182l-.277-.03a.474.474,0,0,1-.173-.039.129.129,0,0,1-.03-.1,2.5,2.5,0,0,1,.178-.552l.2-.458h1.631l.31.792a1.4,1.4,0,0,1,.087.265.1.1,0,0,1-.042.076.645.645,0,0,1-.18.03l-.277.015v.182c.337-.012.613-.02.825-.02s.446.008.688.02v-.182a.79.79,0,0,1-.276-.038.47.47,0,0,1-.114-.1m-2.55-1.271.711-1.692.708,1.692Z" transform="translate(-46.294 -207.808)" fill="#fff0d5"/><path d="M584.483,299.482c-.249,0-.529-.011-.847-.023v.174h.2c.167,0,.273.038.307.1a1.481,1.481,0,0,1,.072.658v2.13a1.883,1.883,0,0,1-.061.678c-.041.06-.133.09-.3.09h-.223v.182c.34-.011.62-.019.836-.019s.5.008.855.019v-.182h-.208c-.163,0-.269-.03-.314-.094a1.925,1.925,0,0,1-.06-.674v-.968c.167-.008.31-.008.431-.008a2.464,2.464,0,0,1,.749.057c.073.038.1.144.1.318v.212h.185v-.662c0-.1.007-.325.022-.663h-.174l-.034.213a.815.815,0,0,1-.061.219.194.194,0,0,1-.148.046c-.209.016-.461.024-.738.024-.109,0-.223,0-.336-.008v-.9a6.047,6.047,0,0,1,.037-.658,4.911,4.911,0,0,1,.673-.041,3.475,3.475,0,0,1,.78.1,2.445,2.445,0,0,1,.065.53h.177a3.412,3.412,0,0,1,.1-.863c-.152-.015-.307-.023-.477-.023Z" transform="translate(-60.043 -207.88)" fill="#fff0d5"/><path d="M599.89,302.532c-.052.246-.1.454-.151.624a1.2,1.2,0,0,1-.291.069,3.448,3.448,0,0,1-.526.03c-.315,0-.612-.007-.893-.03,0-.117,0-.3,0-.545l-.008-.4v-.692c.17-.015.333-.015.492-.015a2.558,2.558,0,0,1,.745.054c.076.045.11.155.11.332v.162h.2c-.016-.241-.023-.449-.023-.627s.008-.4.023-.681h-.2V301c0,.158-.027.257-.084.292a4.017,4.017,0,0,1-.769.042c-.14,0-.3,0-.495-.02v-.566l.008-.436c0-.182.007-.359,0-.53.287-.023.559-.038.817-.038a2.318,2.318,0,0,1,.814.125,4.088,4.088,0,0,1,.026.514h.2a3.668,3.668,0,0,1,.11-.866,4.076,4.076,0,0,0-.522-.023l-.507,0-1.081.019c-.088,0-.22-.011-.39-.011l-.292-.012h-.313v.174l.226.027a.249.249,0,0,1,.3.121,1.659,1.659,0,0,1,.031.288c.015.159.018.364.018.624v1.548c0,.4,0,.667-.018.784a.314.314,0,0,1-.08.223.652.652,0,0,1-.307.045h-.09v.182c.355-.012.658-.019.878-.019s.587.008,1.075.019l.443.012c.207,0,.423-.012.627-.031v-.128a7.725,7.725,0,0,1,.083-.825Z" transform="translate(-70.039 -207.91)" fill="#fff0d5"/><path d="M611.058,299.492c.015.254.03.451.03.583v.336h.173l.039-.374c.015-.148.049-.232.086-.254a4.685,4.685,0,0,1,.776-.034h.28c.023.265.023.56.023.874v1.612c0,.344-.011.631-.023.852a.283.283,0,0,1-.076.193.43.43,0,0,1-.238.045h-.242v.182c.325-.012.609-.019.84-.019s.518.008.843.019v-.182h-.2c-.185,0-.3-.03-.325-.09a4.818,4.818,0,0,1-.046-.984v-1.608c0-.314.015-.609.035-.893h.222c.258,0,.493.007.693.026a.284.284,0,0,1,.147.038.532.532,0,0,1,.05.232l.03.366h.174c0-.292.023-.6.052-.919l-1.555.023c-.175,0-.78-.011-1.786-.023" transform="translate(-80.73 -207.913)" fill="#fff0d5"/><path d="M628.67,302.532c-.049.246-.1.454-.143.624a1.285,1.285,0,0,1-.3.069,3.458,3.458,0,0,1-.53.03c-.31,0-.6-.007-.877-.03-.008-.117-.012-.3-.012-.545v-1.094c.167-.015.322-.015.488-.015a2.539,2.539,0,0,1,.742.054c.072.045.106.155.106.332v.162h.2c-.019-.241-.019-.449-.019-.627s0-.4.019-.681h-.2V301c0,.158-.016.257-.087.292a3.883,3.883,0,0,1-.753.042c-.152,0-.314,0-.5-.02v-.566l0-.436c.008-.182.008-.359.008-.53.283-.023.552-.038.81-.038a2.327,2.327,0,0,1,.809.125,2.94,2.94,0,0,1,.03.514h.2a2.7,2.7,0,0,1,.122-.866,4.429,4.429,0,0,0-.534-.023l-.518,0-1.075.019c-.087,0-.219-.011-.386-.011l-.292-.012h-.31v.174l.219.027a.7.7,0,0,1,.239.042.22.22,0,0,1,.064.078,1.409,1.409,0,0,1,.037.288c.016.159.016.364.016.624v1.548a7.8,7.8,0,0,1-.024.784.308.308,0,0,1-.079.223.646.646,0,0,1-.314.045h-.083v.182c.37-.012.658-.019.88-.019s.591.008,1.068.019l.447.012c.208,0,.419-.012.643-.031l-.011-.128c0-.132.03-.408.075-.825Z" transform="translate(-91.76 -207.91)" fill="#fff0d5"/><path d="M643.594,303.269a.78.78,0,0,1-.2-.208l-.533-.7c-.273-.352-.507-.659-.693-.923a1.518,1.518,0,0,0,.825-.416.991.991,0,0,0,.3-.7.808.808,0,0,0-.137-.465.767.767,0,0,0-.381-.3,2.035,2.035,0,0,0-.738-.11c-.125,0-.311.007-.587.018-.228,0-.413.015-.538.015-.173,0-.442-.011-.8-.023v.174h.147c.193,0,.31.038.353.114a4.784,4.784,0,0,1,.049.977v1.354a6.792,6.792,0,0,1-.046,1.117c-.03.064-.133.1-.3.1h-.2v.182c.42-.011.715-.019.874-.019.209,0,.469.008.778.019v-.182h-.222c-.17,0-.276-.034-.306-.105a5.152,5.152,0,0,1-.053-1.109v-1.354c0-.345.012-.659.037-.958a1.63,1.63,0,0,1,.591-.117.956.956,0,0,1,.662.209.746.746,0,0,1,.212.568.813.813,0,0,1-.261.646,1.054,1.054,0,0,1-.738.246c-.046,0-.137-.007-.238-.015l-.031.094a8.808,8.808,0,0,1,.6.727l1,1.351a3.376,3.376,0,0,1,.337-.019c.117,0,.253.008.412.019v-.182h-.077a.169.169,0,0,1-.1-.022" transform="translate(-102.649 -207.88)" fill="#fff0d5"/><path d="M655.844,299.492v.174h.23c.148,0,.235.042.265.125a6.662,6.662,0,0,1,.05,1.242v.953a7.024,7.024,0,0,1-.05,1.219c-.042.083-.14.12-.322.12h-.173v.182c.252-.012.541-.019.866-.019.27,0,.523.008.758.019v-.182h-.193c-.171,0-.285-.034-.31-.105a7.561,7.561,0,0,1-.05-1.207v-.976c0-.515,0-.873.022-1.079a.4.4,0,0,1,.053-.237.406.406,0,0,1,.254-.054h.224v-.174c-.216.012-.447.023-.7.023-.3,0-.61-.011-.923-.023" transform="translate(-114.517 -207.913)" fill="#fff0d5"/><path d="M658.34,294.774a.215.215,0,0,0,.057-.133.148.148,0,0,0-.057-.113.164.164,0,0,0-.136-.057.448.448,0,0,0-.1.023,1.754,1.754,0,0,0-.152.133l-.833.79h.19l.76-.453a1.233,1.233,0,0,0,.273-.189" transform="translate(-115.477 -204.125)" fill="#fff0d5"/><path d="M667.391,303.084a4.255,4.255,0,0,1-.189-.409l-1.427-3.322h-.189c-.076.215-.22.557-.43,1.019l-.768,1.759c-.145.314-.277.6-.405.874a.478.478,0,0,1-.129.177.647.647,0,0,1-.254.038h-.087v.182c.208-.012.448-.02.715-.02.224,0,.427.008.61.02v-.182l-.27-.03a.421.421,0,0,1-.181-.039.131.131,0,0,1-.038-.1,2.474,2.474,0,0,1,.186-.552l.192-.458h1.638l.3.792a1.214,1.214,0,0,1,.083.265.1.1,0,0,1-.038.076.586.586,0,0,1-.181.03l-.272.015v.182c.34-.012.616-.02.824-.02.224,0,.447.008.7.02v-.182a.732.732,0,0,1-.277-.038.235.235,0,0,1-.114-.1m-2.553-1.271.711-1.692.712,1.692Z" transform="translate(-120.302 -207.808)" fill="#fff0d5"/><path d="M691.256,299.872a1.752,1.752,0,0,0-.726-.315,3.747,3.747,0,0,0-.757-.079l-.617.011-.757,0c-.11,0-.318,0-.62-.012v.174l.222.038a.535.535,0,0,1,.232.064.547.547,0,0,1,.048.247c.024.242.035.53.035.859v.824c0,.727-.018,1.238-.042,1.529l-.26.151v.14c.23-.023.42-.039.583-.039.087,0,.3.007.639.023l.341.008a2.291,2.291,0,0,0,1.679-.625,2.1,2.1,0,0,0,.647-1.574,2.02,2.02,0,0,0-.165-.835,1.556,1.556,0,0,0-.482-.594m-.481,2.978a1.721,1.721,0,0,1-1.225.408,4.723,4.723,0,0,1-.671-.057c-.022-.3-.03-.617-.03-.954V300.4a5.016,5.016,0,0,1,.03-.609,4.694,4.694,0,0,1,.7-.064,1.784,1.784,0,0,1,1.29.431,1.661,1.661,0,0,1,.438,1.252,1.875,1.875,0,0,1-.53,1.442" transform="translate(-138.609 -207.902)" fill="#fff0d5"/><path d="M709.032,302.532c-.049.246-.1.454-.136.624a1.5,1.5,0,0,1-.3.069,3.72,3.72,0,0,1-.538.03c-.315,0-.61-.007-.886-.03,0-.117-.007-.3-.007-.545v-1.094c.174-.015.329-.015.484-.015a2.628,2.628,0,0,1,.753.054c.064.045.1.155.1.332v.162h.2c-.016-.241-.019-.449-.019-.627s0-.4.019-.681h-.2V301c0,.158-.027.257-.087.292a3.781,3.781,0,0,1-.761.042c-.143,0-.3,0-.487-.02v-.566l0-.436c0-.182,0-.359,0-.53.281-.023.553-.038.81-.038a2.307,2.307,0,0,1,.817.125,3.242,3.242,0,0,1,.038.514h.181a3.545,3.545,0,0,1,.125-.866,4.316,4.316,0,0,0-.533-.023l-.511,0-1.086.019c-.086,0-.215-.011-.382-.011l-.291-.012h-.31v.174l.22.027a.874.874,0,0,1,.245.042.205.205,0,0,1,.057.078.748.748,0,0,1,.038.288c.011.159.023.364.023.624v1.548c0,.4-.012.667-.023.784s-.042.193-.087.223a.63.63,0,0,1-.31.045h-.083v.182c.367-.012.654-.019.877-.019s.59.008,1.079.019l.434.012c.216,0,.429-.012.644-.031l-.008-.128c0-.132.023-.408.072-.825Z" transform="translate(-152.381 -207.91)" fill="#fff0d5"/><path d="M723.311,303.132a2.276,2.276,0,0,1-.431.087c-.2.015-.474.023-.829.023-.174,0-.359,0-.541-.012l0-.166,0-.8v-1.793a3.1,3.1,0,0,1,.042-.715c.023-.06.087-.091.189-.091h.352v-.174c-.34.012-.61.023-.8.023-.147,0-.443-.011-.882-.023v.174h.307c.125,0,.2.038.227.1a6.14,6.14,0,0,1,.035.942v1.555a5.763,5.763,0,0,1-.035.893.474.474,0,0,1-.261.213v.147c.374-.019.654-.031.832-.031l1.351.023a4.114,4.114,0,0,0,.692-.045c.023-.307.065-.64.1-.991h-.178Z" transform="translate(-163.224 -207.913)" fill="#fff0d5"/><path d="M734.876,299.492v.174h.227c.155,0,.242.042.268.125a6.988,6.988,0,0,1,.05,1.242v.953a6.939,6.939,0,0,1-.05,1.219c-.041.083-.143.12-.32.12h-.175v.182c.254-.012.545-.019.859-.019.272,0,.526.008.756.019v-.182H736.3c-.163,0-.273-.034-.3-.105a7.461,7.461,0,0,1-.046-1.207v-.976c0-.515.007-.873.015-1.079a.368.368,0,0,1,.053-.237.442.442,0,0,1,.25-.054h.223v-.174c-.215.012-.431.023-.7.023-.307,0-.609-.011-.92-.023" transform="translate(-174.139 -207.913)" fill="#fff0d5"/><path d="M746.183,303.009a3.109,3.109,0,0,1-.745.091,1.754,1.754,0,0,1-.908-.247,1.812,1.812,0,0,1-.667-.676,2.056,2.056,0,0,1-.23-.968,1.673,1.673,0,0,1,.466-1.237,1.621,1.621,0,0,1,1.218-.463,1.793,1.793,0,0,1,.572.084,1.635,1.635,0,0,1,.522.25l.026.5h.185a2.779,2.779,0,0,1,.145-.855c-.1-.023-.25-.053-.427-.091a3.824,3.824,0,0,0-.928-.132,2.832,2.832,0,0,0-1.279.261,1.9,1.9,0,0,0-.806.723,2.158,2.158,0,0,0,0,2.134,1.869,1.869,0,0,0,.81.738,2.6,2.6,0,0,0,1.218.273,2.8,2.8,0,0,0,.67-.084,3.7,3.7,0,0,0,.669-.245,2.577,2.577,0,0,1,.11-.265l-.061-.057a1.628,1.628,0,0,1-.556.269" transform="translate(-180.299 -207.74)" fill="#fff0d5"/><path d="M763.085,303.084a3.231,3.231,0,0,1-.194-.409l-1.418-3.322h-.2c-.08.215-.219.557-.42,1.019l-.776,1.759c-.144.314-.271.6-.409.874a.421.421,0,0,1-.125.177.6.6,0,0,1-.249.038H759.2v.182c.2-.012.443-.02.715-.02.228,0,.424.008.613.02v-.182l-.272-.03a.486.486,0,0,1-.182-.039.146.146,0,0,1-.034-.1,2.551,2.551,0,0,1,.185-.552l.193-.458h1.635l.307.792a1.372,1.372,0,0,1,.086.265.087.087,0,0,1-.045.076.548.548,0,0,1-.174.03l-.279.015v.182c.344-.012.613-.02.821-.02.231,0,.458.008.711.02v-.182a.8.8,0,0,1-.287-.038.241.241,0,0,1-.109-.1m-2.555-1.271.712-1.692.708,1.692Z" transform="translate(-192.491 -207.808)" fill="#fff0d5"/><path d="M777.444,299.492a5.222,5.222,0,0,1,.042.583l-.012.336h.179l.04-.374c.008-.148.042-.232.091-.254a4.216,4.216,0,0,1,.756-.034h.295c.013.265.016.56.016.874v1.612c0,.344-.007.631-.026.852a.305.305,0,0,1-.072.193.4.4,0,0,1-.242.045h-.235v.182c.326-.012.606-.019.84-.019s.515.008.847.019v-.182h-.215c-.19,0-.285-.03-.318-.09a4.749,4.749,0,0,1-.042-.984v-1.608c0-.314.008-.609.027-.893h.219c.261,0,.5.007.7.026a.3.3,0,0,1,.143.038.661.661,0,0,1,.039.232l.037.366h.178a7.818,7.818,0,0,1,.056-.919l-1.559.023c-.177,0-.767-.011-1.789-.023" transform="translate(-206.252 -207.913)" fill="#fff0d5"/><path d="M795.083,302.532a6.161,6.161,0,0,1-.148.624,1.275,1.275,0,0,1-.288.069,3.587,3.587,0,0,1-.534.03c-.318,0-.609-.007-.889-.03,0-.117-.008-.3-.008-.545v-1.094c.171-.015.336-.015.5-.015a2.537,2.537,0,0,1,.738.054c.069.045.114.155.114.332v.162h.185c-.015-.241-.02-.449-.02-.627s.005-.4.02-.681h-.185V301c0,.158-.038.257-.091.292a3.941,3.941,0,0,1-.761.042c-.147,0-.306,0-.5-.02v-.566l.008-.436c0-.182.011-.359,0-.53.287-.023.552-.038.813-.038a2.358,2.358,0,0,1,.825.125,4.086,4.086,0,0,1,.03.514h.189a3.109,3.109,0,0,1,.113-.866,4.251,4.251,0,0,0-.526-.023l-.515,0-1.086.019c-.083,0-.2-.011-.378-.011l-.3-.012h-.3v.174l.216.027a.73.73,0,0,1,.234.042.216.216,0,0,1,.065.078,1.079,1.079,0,0,1,.042.288c.01.159.018.364.018.624v1.548q0,.607-.023.784a.307.307,0,0,1-.087.223.626.626,0,0,1-.31.045h-.083v.182c.363-.012.647-.019.87-.019s.594.008,1.086.019l.447.012c.2,0,.413-.012.628-.031l0-.128a7.488,7.488,0,0,1,.08-.825Z" transform="translate(-217.304 -207.91)" fill="#fff0d5"/><path d="M808.578,301.216a2.977,2.977,0,0,0-.776-.147,3.734,3.734,0,0,1-.767-.129.555.555,0,0,1-.284-.23.708.708,0,0,1-.1-.386.746.746,0,0,1,.253-.582,1.019,1.019,0,0,1,.708-.232,1.527,1.527,0,0,1,.53.087.806.806,0,0,1,.31.167.535.535,0,0,1,.053.3v.227h.205a2.9,2.9,0,0,1,.082-.78,3.184,3.184,0,0,0-.571-.185,2.387,2.387,0,0,0-.567-.06,1.62,1.62,0,0,0-1.105.355,1.137,1.137,0,0,0-.385.9,1.08,1.08,0,0,0,.121.541.865.865,0,0,0,.36.322,3.392,3.392,0,0,0,.866.155,2.291,2.291,0,0,1,.662.114.546.546,0,0,1,.272.23.784.784,0,0,1,.1.387.817.817,0,0,1-.285.636,1.265,1.265,0,0,1-.828.249,1.723,1.723,0,0,1-.455-.057,1.039,1.039,0,0,1-.374-.17.343.343,0,0,1-.133-.136,1,1,0,0,1-.026-.341v-.14h-.2a4.784,4.784,0,0,1-.044.866,2.863,2.863,0,0,0,.548.163,3.106,3.106,0,0,0,.545.057,1.869,1.869,0,0,0,1.266-.405,1.244,1.244,0,0,0,.473-.976.94.94,0,0,0-.124-.5.714.714,0,0,0-.326-.3" transform="translate(-227.917 -207.741)" fill="#fff0d5"/><path d="M820.923,301.216a3.115,3.115,0,0,0-.784-.147,3.73,3.73,0,0,1-.763-.129.559.559,0,0,1-.28-.23.66.66,0,0,1-.114-.386.752.752,0,0,1,.261-.582,1.018,1.018,0,0,1,.707-.232,1.5,1.5,0,0,1,.526.087.72.72,0,0,1,.315.167.56.56,0,0,1,.057.3v.227h.2a3.021,3.021,0,0,1,.087-.78,3.389,3.389,0,0,0-.568-.185,2.41,2.41,0,0,0-.567-.06,1.569,1.569,0,0,0-1.1.355,1.148,1.148,0,0,0-.4.9,1.048,1.048,0,0,0,.124.541.781.781,0,0,0,.356.322,3.477,3.477,0,0,0,.867.155,2.226,2.226,0,0,1,.658.114.554.554,0,0,1,.277.23.745.745,0,0,1,.094.387.806.806,0,0,1-.288.636,1.251,1.251,0,0,1-.821.249,1.782,1.782,0,0,1-.461-.057,1.184,1.184,0,0,1-.371-.17.4.4,0,0,1-.133-.136,1.016,1.016,0,0,1-.034-.341v-.14h-.189a5.014,5.014,0,0,1-.046.866,2.813,2.813,0,0,0,.557.163,2.926,2.926,0,0,0,.544.057,1.884,1.884,0,0,0,1.265-.405,1.272,1.272,0,0,0,.473-.976.907.907,0,0,0-.125-.5.766.766,0,0,0-.325-.3" transform="translate(-237.226 -207.741)" fill="#fff0d5"/><path d="M834.1,302.532a5.245,5.245,0,0,1-.147.624,1.173,1.173,0,0,1-.283.069,3.651,3.651,0,0,1-.537.03c-.314,0-.605-.007-.881-.03,0-.117-.008-.3-.008-.545v-1.094c.167-.015.333-.015.488-.015a2.584,2.584,0,0,1,.749.054c.06.045.095.155.095.332v.162h.2c-.014-.241-.023-.449-.023-.627s.008-.4.023-.681h-.2V301c0,.158-.019.257-.088.292a3.683,3.683,0,0,1-.753.042c-.135,0-.3,0-.492-.02v-.566l.008-.436v-.53c.284-.023.549-.038.81-.038a2.346,2.346,0,0,1,.825.125,4.611,4.611,0,0,1,.03.514h.185a3.24,3.24,0,0,1,.122-.866,4.39,4.39,0,0,0-.53-.023l-.515,0-1.086.019c-.082,0-.212-.011-.375-.011l-.306-.012H831.1v.174l.215.027a.791.791,0,0,1,.25.042.169.169,0,0,1,.06.078,1.342,1.342,0,0,1,.038.288c.012.159.019.364.019.624v1.548c0,.4-.008.667-.019.784a.334.334,0,0,1-.086.223.655.655,0,0,1-.311.045h-.084v.182c.364-.012.651-.019.87-.019.235,0,.6.008,1.083.019l.435.012c.213,0,.428-.012.648-.031l0-.128c0-.132.028-.408.072-.825Z" transform="translate(-246.732 -207.91)" fill="#fff0d5"/><path d="M848.567,299.492v.174l.212.022c.2.019.3.061.333.136a10.413,10.413,0,0,1,.034,1.241v1.812c-.152-.166-.4-.458-.753-.89l-.962-1.184c-.181-.215-.352-.435-.514-.647l-.518-.667c-.171.012-.322.023-.454.023s-.3-.011-.546-.023v.174h.171a.416.416,0,0,1,.215.054.576.576,0,0,1,.11.109.536.536,0,0,1,.038.224c0,.257,0,.521,0,.782v1.4c0,.352,0,.636-.027.844a.287.287,0,0,1-.071.2.4.4,0,0,1-.239.045h-.2v.182c.416-.012.678-.019.791-.019.175,0,.356.008.557.019v-.182l-.182-.015a.615.615,0,0,1-.272-.053.66.66,0,0,1-.072-.246c-.008-.182-.015-.488-.015-.935v-1.949l2.025,2.505c.223.288.446.545.662.772a.282.282,0,0,0,.114.091,2.885,2.885,0,0,0,.446.079c-.034-.473-.046-.878-.046-1.218v-1.275c0-.745,0-1.162.023-1.233.027-.121.132-.182.3-.182h.219v-.174c-.276.012-.5.023-.677.023-.159,0-.4-.011-.7-.023" transform="translate(-257.519 -207.913)" fill="#fff0d5"/></g></svg>